<svg xmlns="http://www.w3.org/2000/svg" width="63" height="62">
    <defs>
        <style>
            .cls-2{fill:#bd9078}.cls-4{fill:#a56e42}
        </style>
    </defs>
    <g id="그룹_782" data-name="그룹 782" transform="translate(-160 -264)">
        <g id="사각형_881" data-name="사각형 881" transform="translate(160 264)" style="fill:#fff;stroke:#f0f0f0;stroke-width:1.3px">
            <rect width="63" height="62" rx="16" style="stroke:none"/>
            <rect x=".65" y=".65" width="61.7" height="60.7" rx="15.35" style="fill:none"/>
        </g>
        <g id="그룹_649" data-name="그룹 649" transform="translate(-515.115 219.371)">
            <path id="패스_254" data-name="패스 254" class="cls-2" d="M717.133 73.888s.993 11.718 1.392 14.722a.592.592 0 0 0 .59.511h1.355a.588.588 0 0 0 .6-.571c.069-2.483.331-12.358.194-15.483z" transform="translate(2.463 .815)"/>
            <path id="패스_255" data-name="패스 255" class="cls-2" d="M689.823 74.923s1.774 10.639 2.229 14.488a.951.951 0 0 0 .95.838h.725a.957.957 0 0 0 .958-1 12735.6 12735.6 0 0 0-.672-14.8z" transform="translate(.145 .932)"/>
            <path id="패스_256" data-name="패스 256" class="cls-2" d="M688.144 71.473a.626.626 0 0 0 .026.153c.166.819.486 2.314.883 3.567a1.09 1.09 0 0 0 1.036.78 293.633 293.633 0 0 0 34.389-2.033 1.128 1.128 0 0 0 .96-1l.4-3.017.039-.307.012-.1-37.742 1.509z" transform="translate(.002 .514)"/>
            <path id="패스_257" data-name="패스 257" d="m724.892 71.186-1.436.2c-5.651.6-16.555 1.01-24.852 1.253-4.04.1-7.453.192-9.358.23a1.1 1.1 0 0 1-1.061-1.483c.739-2.076 1.718-4.965 2.181-6.314a1.112 1.112 0 0 1 1.023-.756c2.387-.077 9.818-.319 16.906-.536 5.792-.166 11.344-.306 13.663-.307a1.128 1.128 0 0 1 1.025.639 152.39 152.39 0 0 0 2.767 5.385 1.154 1.154 0 0 1-.858 1.689z" transform="translate(0 .001)" style="fill:#dbb28b"/>
            <path id="패스_258" data-name="패스 258" class="cls-4" d="M717.133 73.888s.993 11.718 1.392 14.722a.592.592 0 0 0 .59.511h1.355a.588.588 0 0 0 .6-.571c.069-2.483.331-12.358.194-15.483z" transform="translate(2.463 .815)"/>
            <path id="패스_259" data-name="패스 259" class="cls-4" d="M689.823 74.923s1.774 10.639 2.229 14.488a.951.951 0 0 0 .95.838h.725a.957.957 0 0 0 .958-1 12735.6 12735.6 0 0 0-.672-14.8z" transform="translate(.145 .932)"/>
            <path id="패스_260" data-name="패스 260" class="cls-4" d="M688.144 71.473a.626.626 0 0 0 .026.153c.166.819.486 2.314.883 3.567a1.09 1.09 0 0 0 1.036.78 293.633 293.633 0 0 0 34.389-2.033 1.128 1.128 0 0 0 .96-1l.4-3.017.039-.307.012-.1-37.742 1.509z" transform="translate(.002 .514)"/>
            <path id="패스_261" data-name="패스 261" d="m724.892 71.186-1.436.2c-5.651.6-16.555 1.01-24.852 1.253-4.04.1-7.453.192-9.358.23a1.1 1.1 0 0 1-1.061-1.483c.739-2.076 1.718-4.965 2.181-6.314a1.112 1.112 0 0 1 1.023-.756c2.387-.077 9.818-.319 16.906-.536 5.792-.166 11.344-.306 13.663-.307a1.128 1.128 0 0 1 1.025.639 152.39 152.39 0 0 0 2.767 5.385 1.154 1.154 0 0 1-.858 1.689z" transform="translate(0 .001)" style="fill:#eab266"/>
            <path id="패스_262" data-name="패스 262" d="m724.085 71.169-1.5.2c-5.651.6-16.555 1.01-24.852 1.253l9.69-8.859c5.817-.166 11.391-.307 13.692-.307a1.109 1.109 0 0 1 .984.614c.486 1.01 1.547 3.119 2.813 5.471a1.107 1.107 0 0 1-.827 1.628z" transform="translate(.817)" style="fill:#d09474;opacity:.2"/>
            <path id="패스_263" data-name="패스 263" d="M688.152 72.013a.739.739 0 0 0 .021.127c.166.819.486 2.314.883 3.567a1.088 1.088 0 0 0 1.017.777c.382 2.312 1.735 10.566 2.125 13.86a.951.951 0 0 0 .95.838h.725a.957.957 0 0 0 .958-1c-.117-2.586-.432-9.577-.623-13.728 5.606-.086 15.331-.4 25.414-1.445.153 1.793 1 11.686 1.366 14.415a.592.592 0 0 0 .59.511h1.355a.588.588 0 0 0 .6-.571c.065-2.328.3-11.155.216-14.823.245-.03.491-.057.737-.089a1.128 1.128 0 0 0 .96-1l.4-3.017.015-.116a1.164 1.164 0 0 0-.1-.83 153.288 153.288 0 0 1-2.767-5.385 1.117 1.117 0 0 0-.725-.6 1.087 1.087 0 0 0-.321-.051c-2.3 0-7.875.141-13.692.307l-.013.012c-7.069.216-14.462.457-16.843.534a1.112 1.112 0 0 0-1.023.756c-.462 1.348-1.442 4.238-2.181 6.315a.978.978 0 0 0-.037.155.841.841 0 0 0-.007.481z" style="stroke:#ad7950;stroke-linejoin:round;stroke-miterlimit:10;fill:none"/>
        </g>
    </g>
</svg>
