<svg xmlns="http://www.w3.org/2000/svg" width="62" height="62">
    <defs>
        <style>
            .cls-3{fill:#fff5ea}.cls-5{fill:#513d39}
        </style>
    </defs>
    <g id="그룹_784" data-name="그룹 784" transform="translate(-303 -264)">
        <g id="사각형_880" data-name="사각형 880" transform="translate(303 264)" style="fill:#fff;stroke:#f0f0f0;stroke-width:1.3px">
            <rect width="62" height="62" rx="16" style="stroke:none"/>
            <rect x=".65" y=".65" width="60.7" height="60.7" rx="15.35" style="fill:none"/>
        </g>
        <g id="그룹_651" data-name="그룹 651" transform="translate(-235.987 155.066)">
            <path id="패스_264" data-name="패스 264" d="M562.979 156.745a4.772 4.772 0 0 0 .253 1.864 2.432 2.432 0 0 0 1.893 1.592 38.952 38.952 0 0 0 11.654.5 2.5 2.5 0 0 0 2.1-2.152c.056-.431.115-.917.169-1.433z" transform="translate(-.572 -2.187)" style="fill:#fa6955"/>
            <path id="패스_265" data-name="패스 265" class="cls-3" d="M557.49 139.454A14.914 14.914 0 0 1 554.834 125a1.888 1.888 0 0 1 2.32-1.187 20.872 20.872 0 0 1 9.03 5.621z" transform="translate(0 -.085)"/>
            <path id="패스_266" data-name="패스 266" d="M559.565 135.416a12.766 12.766 0 0 1-1.716-5.381.5.5 0 0 1 .681-.456l5.272 2a.5.5 0 0 1 .148.845l-3.627 3.114a.5.5 0 0 1-.758-.122z" transform="translate(-.246 -.455)" style="fill:#eadcce"/>
            <path id="패스_267" data-name="패스 267" class="cls-5" d="M577.51 128.5a20.712 20.712 0 0 1 8.259-6.024.926.926 0 0 1 1.129.368c1.023 1.692 3.211 6.784-.451 15.415l-8.937-6.359z" transform="translate(-1.499)"/>
            <path id="패스_268" data-name="패스 268" d="M580.627 130.325a19.064 19.064 0 0 1 3.2-2.585.447.447 0 0 1 .657.226 10.63 10.63 0 0 1 .332 5.738.447.447 0 0 1-.726.233l-3.441-2.962a.442.442 0 0 1-.022-.65z" transform="translate(-1.689 -.335)" style="fill:#3f322f"/>
            <path id="패스_269" data-name="패스 269" class="cls-3" d="M587.071 147.18a8.07 8.07 0 0 1-2.632 5.312c-4.785 4.269-11.421 4.486-11.421 4.486a25.926 25.926 0 0 1-9.586-1.51 9.815 9.815 0 0 1-6.348-6.7c-1.276-5.25 1.1-10.858 1.1-10.858s3.717-10.219 13.766-10.452a9.877 9.877 0 0 1 1.946.14c3.031.467 8.853 2.414 11.867 10.311.175.467.335.935.463 1.387a19.938 19.938 0 0 1 .845 7.884z" transform="translate(-.173 -.321)"/>
            <path id="패스_270" data-name="패스 270" class="cls-5" d="M568.864 148.52a1.754 1.754 0 0 1 .877-2.428 3.308 3.308 0 0 1 1.427-.116 11.64 11.64 0 0 1 2.817.55 1.343 1.343 0 0 1 .622 1.646 5.294 5.294 0 0 1-2.044 1.883 2.153 2.153 0 0 1-2.21.035 3.528 3.528 0 0 1-1.489-1.57z" transform="translate(-.936 -1.5)"/>
            <path id="패스_271" data-name="패스 271" d="M571.349 150.427a21.391 21.391 0 0 0-.133 3.094" transform="translate(-1.096 -1.785)" style="stroke-linecap:round;stroke-linejoin:round;stroke:#513d39;stroke-width:1.704px;fill:none"/>
            <g id="그룹_650" data-name="그룹 650" transform="translate(566.726 140.093)">
                <path id="패스_272" data-name="패스 272" class="cls-5" d="M569.391 141.585a2.056 2.056 0 0 1 .193.266.822.822 0 0 1 .116.494 1.666 1.666 0 0 1-.81 1.411.844.844 0 0 1-1.076-.294 1.351 1.351 0 0 1 .153-1.675.892.892 0 0 0 .049-.071.854.854 0 0 1 1.375-.131z" transform="translate(-567.593 -141.296)"/>
                <path id="패스_273" data-name="패스 273" class="cls-5" d="M575.746 141.585a2.146 2.146 0 0 1 .193.266.829.829 0 0 1 .116.494 1.668 1.668 0 0 1-.81 1.411.844.844 0 0 1-1.076-.294 1.351 1.351 0 0 1 .152-1.675.609.609 0 0 0 .049-.071.855.855 0 0 1 1.376-.131z" transform="translate(-567.998 -141.296)"/>
            </g>
            <path id="패스_274" data-name="패스 274" class="cls-5" d="M587.4 139.432a17.637 17.637 0 0 1-6.013.83c-.064 0-.128-.016-.176-.016a8.419 8.419 0 0 1-6.922-10.751 15.2 15.2 0 0 1 .782-2.042c3.03.478 8.852 2.473 11.867 10.56.179.478.339.956.462 1.419z" transform="translate(-1.272 -.321)"/>
            <path id="패스_275" data-name="패스 275" d="M557.5 139.369a19.471 19.471 0 0 0-.579 9.589 9.82 9.82 0 0 0 5.536 6.5 5.03 5.03 0 0 0 .213.961 2.432 2.432 0 0 0 1.893 1.592 38.952 38.952 0 0 0 11.654.5 2.5 2.5 0 0 0 2.1-2.152c.006-.043.011-.1.016-.141a17.215 17.215 0 0 0 5.945-3.451 8.334 8.334 0 0 0 2.632-5.439 20.877 20.877 0 0 0-.845-8.071 17.715 17.715 0 0 0-.463-1.419c-.078-.207-.164-.393-.244-.592 3.077-8.014 1.036-12.781.054-14.406a.926.926 0 0 0-1.129-.368 21.125 21.125 0 0 0-7.84 5.52 14.066 14.066 0 0 0-2.709-.714 9.686 9.686 0 0 0-1.946-.143 13.226 13.226 0 0 0-6.167 1.661 20.824 20.824 0 0 0-8.455-5.069 1.887 1.887 0 0 0-2.32 1.187s-2.864 6.476 2.654 14.455z" transform="translate(-.007)" style="stroke:#efe3d8;stroke-miterlimit:10;stroke-linecap:round;stroke-linejoin:round;fill:none"/>
        </g>
    </g>
</svg>
