<svg xmlns="http://www.w3.org/2000/svg" width="68" height="68"><defs><style>.prefix__cls-5{fill:none}.prefix__cls-2{fill:#ddb287}.prefix__cls-3{fill:#c49474}.prefix__cls-5{stroke:#c49474;stroke-linecap:round;stroke-linejoin:round}</style></defs><g id="prefix__그룹_797" data-name="그룹 797" transform="translate(-104 -240)"><g id="prefix__사각형_460" data-name="사각형 460" transform="translate(104 240)" stroke="#f0f0f0" fill="none"><rect width="68" height="68" rx="16" stroke="none"/><rect x=".5" y=".5" width="67" height="67" rx="15.5"/></g><g id="prefix__그룹_769" data-name="그룹 769" transform="translate(-287.559 155.846)"><path id="prefix__패스_526" data-name="패스 526" class="prefix__cls-2" d="M434.972 103.41a9.863 9.863 0 00-7.081 2.886l-.005.01a7.174 7.174 0 00-1.89-.094 11.437 11.437 0 00-10.258 8.423 6.928 6.928 0 00-5.545 2.6c-2.985 3.567-3.582 8.836-3.582 8.836s-.731 5.918 3.655 8.14c0 0 3.614 3.05 11.435-.515.7-.319 1.427-.585 2.155-.836 2.075-.713 7.14-3 14.463-9.872a24.686 24.686 0 004.98-7.136 9.289 9.289 0 00-8.327-12.442z"/><path id="prefix__패스_527" data-name="패스 527" class="prefix__cls-2" d="M443.3 115.847a24.631 24.631 0 01-4.988 7.132c-7.318 6.88-12.382 9.166-14.461 9.878-.722.252-1.455.514-2.155.831-7.821 3.566-11.431.514-11.431.514a6.117 6.117 0 01-2.691-2.68 10.384 10.384 0 01-.974-5.458s.6-5.272 3.588-8.838a6.979 6.979 0 015.272-2.6c.087 0 .186.011.273.011A11.436 11.436 0 01426 106.211a7.31 7.31 0 011.892.1v-.011a9.857 9.857 0 017.077-2.888 9.3 9.3 0 018.335 12.437z"/><path id="prefix__패스_528" data-name="패스 528" class="prefix__cls-3" d="M415.355 113.817a8.6 8.6 0 01.715-2 7.008 7.008 0 015.4 5.848 10.406 10.406 0 00-6.115-3.848z" transform="translate(.825 .789)"/><path id="prefix__패스_529" data-name="패스 529" class="prefix__cls-3" d="M426.825 106.034a10.918 10.918 0 014.6 3.555s-.711-3.513-3.513-4.935z" transform="translate(1.902 .117)"/><path id="prefix__패스_530" data-name="패스 530" d="M443.215 115.287a24.63 24.63 0 01-4.988 7.132c-7.318 6.88-12.382 9.167-14.461 9.878-.722.252-1.455.514-2.155.831-7.821 3.566-11.431.514-11.431.514a6.117 6.117 0 01-2.691-2.68c9.2-2.406 25.137-8.259 35.857-21.582a9.2 9.2 0 01-.131 5.907z" transform="translate(.087 .561)" opacity=".24" fill="#c49474"/><path id="prefix__패스_531" data-name="패스 531" class="prefix__cls-5" d="M421.714 118.525c-1.808-2.982-4.107-3.809-5.954-3.891a6.93 6.93 0 00-5.546 2.6c-2.985 3.567-3.581 8.836-3.581 8.836s-.731 5.918 3.655 8.14c0 0 3.614 3.05 11.434-.515.7-.319 1.429-.585 2.156-.836 2.075-.713 7.14-3 14.463-9.872a24.687 24.687 0 004.98-7.136A9.289 9.289 0 00435 103.41a9.867 9.867 0 00-7.082 2.886" transform="translate(.003)"/><path id="prefix__패스_532" data-name="패스 532" class="prefix__cls-5" d="M414.973 114.4a11.437 11.437 0 0110.259-8.423 6.915 6.915 0 016.88 3.784l.049.1" transform="translate(.79 .238)"/></g></g></svg>