<svg xmlns="http://www.w3.org/2000/svg" width="68" height="68"><defs><style>.prefix__cls-7{fill:#84c989}.prefix__cls-8{fill:#d39562}.prefix__cls-9{fill:#fff}.prefix__cls-10{fill:#fcdc5e}.prefix__cls-11{fill:#bd704f}</style></defs><g id="prefix__그룹_795" data-name="그룹 795" transform="translate(-275 -240)"><g id="prefix__사각형_460" data-name="사각형 460" transform="translate(275 240)" stroke="#f0f0f0" fill="none"><rect width="68" height="68" rx="16" stroke="none"/><rect x=".5" y=".5" width="67" height="67" rx="15.5"/></g><g id="prefix__그룹_768" data-name="그룹 768" transform="translate(-142.273 76.612)"><path id="prefix__패스_505" data-name="패스 505" d="M430.027 206.017a20.465 20.465 0 01-.715-6.808c.348-5.863 2.664-17.186 15.033-20.865 9.971-2.965 17.225 1.781 21.512 6.2a21.141 21.141 0 015.963 13.212c.354 5.061-.508 11.828-6.074 16.97a20.517 20.517 0 01-12.365 5.185c-7.231.564-19.565-.565-23.354-13.894z" fill="#f8f4f4"/><path id="prefix__패스_506" data-name="패스 506" d="M430.027 206.017a20.465 20.465 0 01-.715-6.808c.348-5.863 2.664-17.186 15.033-20.865 9.971-2.965 17.225 1.781 21.512 6.2a21.141 21.141 0 015.963 13.212c.354 5.061-.508 11.828-6.074 16.97a20.517 20.517 0 01-12.365 5.185c-7.231.564-19.565-.565-23.354-13.894z" stroke="#e8e8e8" stroke-miterlimit="10" fill="none"/><path id="prefix__패스_507" data-name="패스 507" d="M437.331 202.064a12.2 12.2 0 01-.427-4.056c.207-3.493 1.587-10.239 8.956-12.431 5.941-1.767 10.262 1.061 12.815 3.691a12.6 12.6 0 013.553 7.872 11.636 11.636 0 01-10.986 13.2c-4.306.336-11.653-.34-13.911-8.276z" transform="translate(1.004 1.004)" fill="#dbdbdb"/><g id="prefix__그룹_759" data-name="그룹 759" transform="translate(447.383 178.421)"><path id="prefix__패스_508" data-name="패스 508" d="M450.813 203.411a6.832 6.832 0 014.954.923 14.434 14.434 0 004.927 2.032 4.3 4.3 0 00.866.1c3.744.033 4.994-2.206 5.386-4.081a4.862 4.862 0 00-.443-3.127l-.1-.2a2.243 2.243 0 01.149-2.263 4.939 4.939 0 00.758-1.673 2.471 2.471 0 00-.8-2.524 1.962 1.962 0 00-.37-.24l-17.761 7.056a2.282 2.282 0 00-.372 1.245 2.657 2.657 0 001.5 2.6 2.381 2.381 0 001.306.152z" transform="translate(-444.911 -176.449)" fill="#7cc97e"/><path id="prefix__패스_509" data-name="패스 509" d="M463.224 196.091a6.238 6.238 0 004.574-4.033l.05-.121a4.922 4.922 0 00-2.342-6.07 4.217 4.217 0 01-1.144-.959 3.338 3.338 0 01-.787-2.061 4.235 4.235 0 00-2.762-4.178c-2.329-1.164-4.823.832-4.823.832-.755.855-2.794 1.023-2.794 1.023a6.518 6.518 0 00-5.024 1.845q-.236.241-.432.486a6.118 6.118 0 00-.514 6.528l.036.074a5.455 5.455 0 01.052 4.9 6.7 6.7 0 01-.927 1.348 4.174 4.174 0 00-.212 5.334s1.244 2.259 4.64 1.151a7.346 7.346 0 015.079.108l.08.034a3.5 3.5 0 004.613-1.5 4.7 4.7 0 00.321-.944s.142-3.257 2.316-3.797z" transform="translate(-445.271 -178.304)" fill="#d5f796"/><g id="prefix__그룹_756" data-name="그룹 756" transform="translate(4.57 7.449)"><path id="prefix__패스_510" data-name="패스 510" class="prefix__cls-7" d="M449.873 197.354a.556.556 0 01-.345-.119.564.564 0 01-.1-.794c.043-.055 4.4-5.66 9.939-11.386a.566.566 0 01.814.788c-5.5 5.679-9.816 11.235-9.859 11.291a.561.561 0 01-.449.22z" transform="translate(-449.308 -184.884)"/></g><g id="prefix__그룹_757" data-name="그룹 757" transform="translate(10.124 7.447)"><path id="prefix__패스_511" data-name="패스 511" class="prefix__cls-7" d="M455.264 190.176a.565.565 0 01-.514-.326 8.48 8.48 0 01-.4-4.507.559.559 0 01.662-.449.568.568 0 01.451.662 7.435 7.435 0 00.308 3.815.565.565 0 01-.512.8z" transform="translate(-454.214 -184.882)"/></g><g id="prefix__그룹_758" data-name="그룹 758" transform="translate(7.027 14.675)"><path id="prefix__패스_512" data-name="패스 512" class="prefix__cls-7" d="M452.044 193.482a.566.566 0 01-.024-1.131 11.708 11.708 0 004.29-1.007.566.566 0 11.565.98 12.624 12.624 0 01-4.808 1.158z" transform="translate(-451.479 -191.268)"/></g></g><g id="prefix__그룹_763" data-name="그룹 763" transform="translate(432.111 187.044)"><path id="prefix__패스_513" data-name="패스 513" class="prefix__cls-8" d="M458.938 205.216a17.442 17.442 0 01-8.422 7.392 9.311 9.311 0 01-5.468.691 3.623 3.623 0 01-2.717-3.2 2.324 2.324 0 011.777-2.468 12.3 12.3 0 004.89-2.706c.272-.238.555-.509.826-.792a13.714 13.714 0 001.755-2.309q.289-.492.543-.985c.192-.351.374-.7.532-1.053a20.747 20.747 0 001.064-2.739c.125-.385.226-.77.317-1.166.045-.17.091-.351.124-.532.317-1.46.826-3.238 1.562-3.871a3.008 3.008 0 01.226-.249 3.912 3.912 0 016.486 2.049c.512 2.236.067 5.938-3.495 11.938z" transform="translate(-430.389 -185.362)"/><path id="prefix__패스_514" data-name="패스 514" class="prefix__cls-9" d="M445.861 205.225a1.3 1.3 0 01.533-.2c4.79-.754 6.3-5.678 6.3-5.678a10.861 10.861 0 00.379-4.4 1.905 1.905 0 01.165-.942 5.68 5.68 0 00-.221-5.47c-3.024-4.428-6.534-1.889-6.534-1.889a3.354 3.354 0 01-2.485.648 13.492 13.492 0 00-2.5-.165 9.91 9.91 0 00-5.3 1.484c-4.842 3.163-4.4 9-4.4 9a11 11 0 007.929 9.3 5.738 5.738 0 004.812-.772z" transform="translate(-431.78 -185.922)"/><path id="prefix__패스_515" data-name="패스 515" class="prefix__cls-10" d="M435.211 196.615a3.565 3.565 0 01-.157-.769 4.208 4.208 0 011.792-3.793 6.132 6.132 0 011.943-.685 3.872 3.872 0 014.323 2.94 4.554 4.554 0 01-.2 3.058 3.667 3.667 0 01-2.262 1.927 4.621 4.621 0 01-3.277-.19 3.817 3.817 0 01-2.016-2.089 3.518 3.518 0 01-.146-.399z" transform="translate(-431.35 -185.21)"/><g id="prefix__그룹_760" data-name="그룹 760" transform="translate(23.331 10.514)"><path id="prefix__패스_516" data-name="패스 516" class="prefix__cls-11" d="M455.854 197.021a.563.563 0 01-.566.543h-.023a4.782 4.782 0 01-2.875-1.189c.125-.385.226-.77.317-1.166a.563.563 0 01.283.17 3.613 3.613 0 002.332 1.053.566.566 0 01.532.589z" transform="translate(-452.39 -195.21)"/></g><g id="prefix__그룹_761" data-name="그룹 761" transform="translate(21.735 14.42)"><path id="prefix__패스_517" data-name="패스 517" class="prefix__cls-11" d="M454.014 200.833a.555.555 0 01-.543.43.78.78 0 01-.147-.023 4.883 4.883 0 01-2.343-1.528c.192-.351.374-.7.532-1.053a.514.514 0 01.215.17 3.894 3.894 0 001.879 1.313.564.564 0 01.407.691z" transform="translate(-450.98 -198.66)"/></g><g id="prefix__그룹_762" data-name="그룹 762" transform="translate(18.61 18.766)"><path id="prefix__패스_518" data-name="패스 518" class="prefix__cls-11" d="M451.061 205.172a.572.572 0 01-.521.34.6.6 0 01-.226-.057 4.861 4.861 0 01-2.094-2.162c.272-.238.555-.509.826-.792a.456.456 0 01.124.158 3.907 3.907 0 001.6 1.766.56.56 0 01.291.747z" transform="translate(-448.22 -202.5)"/></g></g><g id="prefix__그룹_767" data-name="그룹 767" transform="translate(432.111 187.044)"><path id="prefix__패스_519" data-name="패스 519" class="prefix__cls-8" d="M462.232 197.778a28.472 28.472 0 01-3.294 7.437 17.442 17.442 0 01-8.422 7.392 9.311 9.311 0 01-5.468.691 3.734 3.734 0 01-2.411-2 3.958 3.958 0 01-.306-1.2 2.324 2.324 0 011.777-2.468 12.3 12.3 0 004.89-2.706c.272-.238.555-.509.826-.792a13.714 13.714 0 001.755-2.309q.289-.492.543-.985c.192-.351.374-.7.532-1.053a20.747 20.747 0 001.064-2.739c.125-.385.226-.77.317-1.166.045-.17.091-.351.124-.532.317-1.46.826-3.238 1.562-3.871a3.008 3.008 0 01.226-.249 3.912 3.912 0 016.486 2.049 9.808 9.808 0 01-.201 4.501z" transform="translate(-430.389 -185.362)"/><path id="prefix__패스_520" data-name="패스 520" class="prefix__cls-9" d="M445.861 205.225a1.3 1.3 0 01.533-.2c4.79-.754 6.3-5.678 6.3-5.678a10.861 10.861 0 00.379-4.4 1.905 1.905 0 01.165-.942 5.68 5.68 0 00-.221-5.47c-3.024-4.428-6.534-1.889-6.534-1.889a3.354 3.354 0 01-2.485.648 13.492 13.492 0 00-2.5-.165 9.91 9.91 0 00-5.3 1.484c-4.842 3.163-4.4 9-4.4 9a11 11 0 007.929 9.3 5.738 5.738 0 004.812-.772z" transform="translate(-431.78 -185.922)"/><path id="prefix__패스_521" data-name="패스 521" class="prefix__cls-10" d="M435.211 196.615a3.565 3.565 0 01-.157-.769 4.208 4.208 0 011.792-3.793 6.132 6.132 0 011.943-.685 3.872 3.872 0 014.323 2.94 4.554 4.554 0 01-.2 3.058 3.667 3.667 0 01-2.262 1.927 4.621 4.621 0 01-3.277-.19 3.817 3.817 0 01-2.016-2.089 3.518 3.518 0 01-.146-.399z" transform="translate(-431.35 -185.21)"/><g id="prefix__그룹_764" data-name="그룹 764" transform="translate(23.331 10.514)"><path id="prefix__패스_522" data-name="패스 522" class="prefix__cls-11" d="M455.854 197.021a.563.563 0 01-.566.543h-.023a4.782 4.782 0 01-2.875-1.189c.125-.385.226-.77.317-1.166a.563.563 0 01.283.17 3.613 3.613 0 002.332 1.053.566.566 0 01.532.589z" transform="translate(-452.39 -195.21)"/></g><g id="prefix__그룹_765" data-name="그룹 765" transform="translate(21.735 14.42)"><path id="prefix__패스_523" data-name="패스 523" class="prefix__cls-11" d="M454.014 200.833a.555.555 0 01-.543.43.78.78 0 01-.147-.023 4.883 4.883 0 01-2.343-1.528c.192-.351.374-.7.532-1.053a.514.514 0 01.215.17 3.894 3.894 0 001.879 1.313.564.564 0 01.407.691z" transform="translate(-450.98 -198.66)"/></g><g id="prefix__그룹_766" data-name="그룹 766" transform="translate(18.61 18.766)"><path id="prefix__패스_524" data-name="패스 524" class="prefix__cls-11" d="M451.061 205.172a.572.572 0 01-.521.34.6.6 0 01-.226-.057 4.861 4.861 0 01-2.094-2.162c.272-.238.555-.509.826-.792a.456.456 0 01.124.158 3.907 3.907 0 001.6 1.766.56.56 0 01.291.747z" transform="translate(-448.22 -202.5)"/></g></g><path id="prefix__패스_525" data-name="패스 525" d="M462.2 196.89a28.472 28.472 0 01-3.294 7.437 17.442 17.442 0 01-8.422 7.392 9.311 9.311 0 01-5.468.691 3.734 3.734 0 01-2.411-2c3.844.132 11.077-1.634 19.595-13.52z" transform="translate(1.759 2.57)" opacity=".3" fill="#bd704f"/></g></g></svg>