<svg xmlns="http://www.w3.org/2000/svg" width="68" height="68"><defs><style>.prefix__cls-6{fill:none}.prefix__cls-2{fill:#ffe0a2}.prefix__cls-3,.prefix__cls-7{fill:#b96700}.prefix__cls-3{opacity:.11}.prefix__cls-4{fill:#fff}.prefix__cls-5{fill:#ff6d45}.prefix__cls-6{stroke:#e95513;stroke-linecap:round;stroke-miterlimit:10;stroke-width:1.035px}.prefix__cls-7{opacity:.09}.prefix__cls-8{fill:#fffff6}.prefix__cls-10{fill:#be9359;opacity:.376}.prefix__cls-14{stroke:none}</style></defs><g id="prefix__그룹_793" data-name="그룹 793" transform="translate(-189 -138)"><g id="prefix__사각형_460" data-name="사각형 460" transform="translate(189 138)" stroke="#f0f0f0" fill="none"><rect class="prefix__cls-14" width="68" height="68" rx="16"/><rect x=".5" y=".5" width="67" height="67" rx="15.5"/></g><g id="prefix__그룹_691" data-name="그룹 691" transform="translate(-365.409 13.251)"><path id="prefix__패스_344" data-name="패스 344" class="prefix__cls-2" d="M571.059 159.742s.9 9.158 2.982 13.508a4.088 4.088 0 003.4 2.3 136.668 136.668 0 0020.328.115 4.1 4.1 0 003.41-2.447c1-2.314 2.35-6.719 3.037-14.437z" transform="translate(.074 1.946)"/><path id="prefix__패스_345" data-name="패스 345" class="prefix__cls-2" d="M604.215 158.783a77.858 77.858 0 01-.646 5.318 38.414 38.414 0 01-2.388 9.114 4.092 4.092 0 01-3.415 2.446 135.876 135.876 0 01-20.327-.1 4.115 4.115 0 01-3.4-2.308 36.6 36.6 0 01-2.319-8.652c-.45-2.711-.657-4.857-.657-4.857z" transform="translate(.074 1.946)"/><path id="prefix__패스_346" data-name="패스 346" class="prefix__cls-2" d="M604.215 158.783a77.858 77.858 0 01-.646 5.318 49.556 49.556 0 01-1.061 5.111 27.2 27.2 0 01-1.327 4 4.092 4.092 0 01-3.415 2.446 135.876 135.876 0 01-20.327-.1 4.115 4.115 0 01-3.4-2.308 22.192 22.192 0 01-1.327-3.864 62.992 62.992 0 01-.992-4.788c-.45-2.711-.657-4.857-.657-4.857z" transform="translate(.074 1.946)"/><path id="prefix__패스_347" data-name="패스 347" class="prefix__cls-3" d="M604.215 158.783a77.858 77.858 0 01-.646 5.318 198.749 198.749 0 01-31.853.5c-.45-2.711-.657-4.857-.657-4.857z" transform="translate(.074 1.946)"/><path id="prefix__패스_348" data-name="패스 348" class="prefix__cls-4" d="M592.053 145.824c-5.5 2.113-11.74 6.777-15.026 9.42-1.339 1.077-2.725 2.08-4.1 3.1a9.86 9.86 0 00-2.018 1.908 2.988 2.988 0 00-.2.294 1.985 1.985 0 002.19 2.973 6.859 6.859 0 001.667-.674 5.888 5.888 0 012.854-.712 5.375 5.375 0 013.368.974 4.116 4.116 0 004.831-.046 5.367 5.367 0 014.912-.277 5.275 5.275 0 003.254.406 7.759 7.759 0 002.247-.9 8.406 8.406 0 014.075-1.321 9.374 9.374 0 013.277.5s2.384.546 1.982-1.8c0 0-2.606-8.278-7.695-13.914a3.15 3.15 0 00-3.509-.781z" transform="translate(0 .343)"/><path id="prefix__패스_349" data-name="패스 349" class="prefix__cls-5" d="M590.3 150.2a4.156 4.156 0 01-1.44-2.719 4.561 4.561 0 011.611-4.317 4.518 4.518 0 017.162 2.833 4.114 4.114 0 01-2.113 4.766s-3.037 1.192-5.22-.563z" transform="translate(2.101 .059)"/><path id="prefix__패스_350" data-name="패스 350" class="prefix__cls-3" d="M602.339 168.143a27.2 27.2 0 01-1.327 4 4.092 4.092 0 01-3.415 2.446 135.876 135.876 0 01-20.327-.1 4.115 4.115 0 01-3.4-2.308 22.192 22.192 0 01-1.327-3.864 115.358 115.358 0 0029.796-.174z" transform="translate(.243 3.015)"/><path id="prefix__패스_351" data-name="패스 351" class="prefix__cls-6" d="M593.65 144.589a4.779 4.779 0 012.283-2.84" transform="translate(2.655)"/><path id="prefix__패스_352" data-name="패스 352" class="prefix__cls-2" d="M571.059 159.742s.9 9.158 2.982 13.508a4.088 4.088 0 003.4 2.3 136.668 136.668 0 0020.328.115 4.1 4.1 0 003.41-2.447c1-2.314 2.35-6.719 3.037-14.437z" transform="translate(.074 1.946)"/><path id="prefix__패스_353" data-name="패스 353" class="prefix__cls-2" d="M604.215 158.783a77.858 77.858 0 01-.646 5.318 38.414 38.414 0 01-2.388 9.114 4.092 4.092 0 01-3.415 2.446 135.876 135.876 0 01-20.327-.1 4.115 4.115 0 01-3.4-2.308 36.6 36.6 0 01-2.319-8.652c-.45-2.711-.657-4.857-.657-4.857z" transform="translate(.074 1.946)"/><path id="prefix__패스_354" data-name="패스 354" class="prefix__cls-2" d="M604.215 158.783a77.858 77.858 0 01-.646 5.318 49.556 49.556 0 01-1.061 5.111 27.2 27.2 0 01-1.327 4 4.092 4.092 0 01-3.415 2.446 135.876 135.876 0 01-20.327-.1 4.115 4.115 0 01-3.4-2.308 22.192 22.192 0 01-1.327-3.864 62.992 62.992 0 01-.992-4.788c-.45-2.711-.657-4.857-.657-4.857z" transform="translate(.074 1.946)"/><path id="prefix__패스_355" data-name="패스 355" class="prefix__cls-3" d="M604.215 158.783a77.858 77.858 0 01-.646 5.318 198.749 198.749 0 01-31.853.5c-.45-2.711-.657-4.857-.657-4.857z" transform="translate(.074 1.946)"/><path id="prefix__패스_356" data-name="패스 356" class="prefix__cls-3" d="M602.339 168.143a27.2 27.2 0 01-1.327 4 4.092 4.092 0 01-3.415 2.446 135.876 135.876 0 01-20.327-.1 4.115 4.115 0 01-3.4-2.308 22.192 22.192 0 01-1.327-3.864 115.358 115.358 0 0029.796-.174z" transform="translate(.243 3.015)"/><path id="prefix__패스_357" data-name="패스 357" class="prefix__cls-7" d="M589.307 159.174l-1.863 5.8-1.7 5.3-1.835 5.685c.628.02 1.275.029 1.94.039 2.662.038 5.533 0 8.32-.172.712-.048 1.425-.095 2.129-.162a4.116 4.116 0 003.423-2.443 27.939 27.939 0 001.322-4 50.543 50.543 0 001.057-5.121c.237-1.569.466-3.337.646-5.315z" transform="translate(1.542 1.946)"/><path id="prefix__패스_358" data-name="패스 358" class="prefix__cls-8" d="M592.053 145.824c-5.5 2.113-11.74 6.777-15.026 9.42-1.339 1.077-2.725 2.08-4.1 3.1a9.86 9.86 0 00-2.018 1.908 2.988 2.988 0 00-.2.294 1.985 1.985 0 002.19 2.973 6.859 6.859 0 001.667-.674 5.888 5.888 0 012.854-.712 5.375 5.375 0 013.368.974 4.116 4.116 0 004.831-.046 5.367 5.367 0 014.912-.277 5.275 5.275 0 003.254.406 7.759 7.759 0 002.247-.9 8.406 8.406 0 014.075-1.321 9.374 9.374 0 013.277.5s2.384.546 1.982-1.8c0 0-2.606-8.278-7.695-13.914a3.15 3.15 0 00-3.509-.781z" transform="translate(0 .343)"/><path id="prefix__패스_359" data-name="패스 359" class="prefix__cls-5" d="M590.3 150.2a4.156 4.156 0 01-1.44-2.719 4.561 4.561 0 011.611-4.317 4.518 4.518 0 017.162 2.833 4.114 4.114 0 01-2.113 4.766s-3.037 1.192-5.22-.563z" transform="translate(2.101 .059)"/><path id="prefix__패스_360" data-name="패스 360" class="prefix__cls-6" d="M593.65 144.589a4.779 4.779 0 012.283-2.84" transform="translate(2.655)"/><path id="prefix__패스_361" data-name="패스 361" class="prefix__cls-2" d="M571.059 159.742s.9 9.158 2.982 13.508a4.088 4.088 0 003.4 2.3 136.668 136.668 0 0020.328.115 4.1 4.1 0 003.41-2.447c1-2.314 2.35-6.719 3.037-14.437z" transform="translate(.074 1.946)"/><path id="prefix__패스_362" data-name="패스 362" class="prefix__cls-2" d="M604.215 158.783a77.858 77.858 0 01-.646 5.318 38.414 38.414 0 01-2.388 9.114 4.092 4.092 0 01-3.415 2.446 135.876 135.876 0 01-20.327-.1 4.115 4.115 0 01-3.4-2.308 36.6 36.6 0 01-2.319-8.652c-.45-2.711-.657-4.857-.657-4.857z" transform="translate(.074 1.946)"/><path id="prefix__패스_363" data-name="패스 363" class="prefix__cls-2" d="M604.215 158.783a77.858 77.858 0 01-.646 5.318 49.556 49.556 0 01-1.061 5.111 27.2 27.2 0 01-1.327 4 4.092 4.092 0 01-3.415 2.446 135.876 135.876 0 01-20.327-.1 4.115 4.115 0 01-3.4-2.308 22.192 22.192 0 01-1.327-3.864 62.992 62.992 0 01-.992-4.788c-.45-2.711-.657-4.857-.657-4.857z" transform="translate(.074 1.946)"/><path id="prefix__패스_364" data-name="패스 364" class="prefix__cls-3" d="M604.215 158.783a77.858 77.858 0 01-.646 5.318 198.749 198.749 0 01-31.853.5c-.45-2.711-.657-4.857-.657-4.857z" transform="translate(.074 1.946)"/><path id="prefix__패스_365" data-name="패스 365" class="prefix__cls-4" d="M592.053 145.824c-5.5 2.113-11.74 6.777-15.026 9.42-1.339 1.077-2.725 2.08-4.1 3.1a9.86 9.86 0 00-2.018 1.908 2.988 2.988 0 00-.2.294 1.985 1.985 0 002.19 2.973 6.859 6.859 0 001.667-.674 5.888 5.888 0 012.854-.712 5.375 5.375 0 013.368.974 4.116 4.116 0 004.831-.046 5.367 5.367 0 014.912-.277 5.275 5.275 0 003.254.406 7.759 7.759 0 002.247-.9 8.406 8.406 0 014.075-1.321 9.374 9.374 0 013.277.5s2.384.546 1.982-1.8c0 0-2.606-8.278-7.695-13.914a3.15 3.15 0 00-3.509-.781z" transform="translate(0 .343)"/><path id="prefix__패스_366" data-name="패스 366" class="prefix__cls-5" d="M590.3 150.2a4.156 4.156 0 01-1.44-2.719 4.561 4.561 0 011.611-4.317 4.518 4.518 0 017.162 2.833 4.114 4.114 0 01-2.113 4.766s-3.037 1.192-5.22-.563z" transform="translate(2.101 .059)"/><path id="prefix__패스_367" data-name="패스 367" class="prefix__cls-3" d="M602.339 168.143a27.2 27.2 0 01-1.327 4 4.092 4.092 0 01-3.415 2.446 135.876 135.876 0 01-20.327-.1 4.115 4.115 0 01-3.4-2.308 22.192 22.192 0 01-1.327-3.864 115.358 115.358 0 0029.796-.174z" transform="translate(.243 3.015)"/><path id="prefix__패스_368" data-name="패스 368" class="prefix__cls-6" d="M593.65 144.589a4.779 4.779 0 012.283-2.84" transform="translate(2.655)"/><path id="prefix__패스_369" data-name="패스 369" class="prefix__cls-2" d="M571.059 159.742s.9 9.158 2.982 13.508a4.088 4.088 0 003.4 2.3 136.668 136.668 0 0020.328.115 4.1 4.1 0 003.41-2.447c1-2.314 2.35-6.719 3.037-14.437z" transform="translate(.074 1.946)"/><path id="prefix__패스_370" data-name="패스 370" class="prefix__cls-2" d="M604.215 158.783a77.858 77.858 0 01-.646 5.318 38.414 38.414 0 01-2.388 9.114 4.092 4.092 0 01-3.415 2.446 135.876 135.876 0 01-20.327-.1 4.115 4.115 0 01-3.4-2.308 36.6 36.6 0 01-2.319-8.652c-.45-2.711-.657-4.857-.657-4.857z" transform="translate(.074 1.946)"/><path id="prefix__패스_371" data-name="패스 371" class="prefix__cls-2" d="M604.215 158.783a77.858 77.858 0 01-.646 5.318 49.556 49.556 0 01-1.061 5.111 27.2 27.2 0 01-1.327 4 4.092 4.092 0 01-3.415 2.446 135.876 135.876 0 01-20.327-.1 4.115 4.115 0 01-3.4-2.308 22.192 22.192 0 01-1.327-3.864 62.992 62.992 0 01-.992-4.788c-.45-2.711-.657-4.857-.657-4.857z" transform="translate(.074 1.946)"/><path id="prefix__패스_372" data-name="패스 372" class="prefix__cls-3" d="M604.215 158.783a77.858 77.858 0 01-.646 5.318 198.749 198.749 0 01-31.853.5c-.45-2.711-.657-4.857-.657-4.857z" transform="translate(.074 1.946)"/><path id="prefix__패스_373" data-name="패스 373" class="prefix__cls-3" d="M602.339 168.143a27.2 27.2 0 01-1.327 4 4.092 4.092 0 01-3.415 2.446 135.876 135.876 0 01-20.327-.1 4.115 4.115 0 01-3.4-2.308 22.192 22.192 0 01-1.327-3.864 115.358 115.358 0 0029.796-.174z" transform="translate(.243 3.015)"/><path id="prefix__패스_374" data-name="패스 374" class="prefix__cls-7" d="M589.307 159.174l-1.863 5.8-1.7 5.3-1.835 5.685c.628.02 1.275.029 1.94.039 2.662.038 5.533 0 8.32-.172.712-.048 1.425-.095 2.129-.162a4.116 4.116 0 003.423-2.443 27.939 27.939 0 001.322-4 50.543 50.543 0 001.057-5.121c.237-1.569.466-3.337.646-5.315z" transform="translate(1.542 1.946)"/><path id="prefix__패스_375" data-name="패스 375" class="prefix__cls-8" d="M592.053 145.824c-5.5 2.113-11.74 6.777-15.026 9.42-1.339 1.077-2.725 2.08-4.1 3.1a9.86 9.86 0 00-2.018 1.908 2.988 2.988 0 00-.2.294 1.985 1.985 0 002.19 2.973 6.859 6.859 0 001.667-.674 5.888 5.888 0 012.854-.712 5.375 5.375 0 013.368.974 4.116 4.116 0 004.831-.046 5.367 5.367 0 014.912-.277 5.275 5.275 0 003.254.406 7.759 7.759 0 002.247-.9 8.406 8.406 0 014.075-1.321 9.374 9.374 0 013.277.5s2.384.546 1.982-1.8c0 0-2.606-8.278-7.695-13.914a3.15 3.15 0 00-3.509-.781z" transform="translate(0 .343)"/><path id="prefix__패스_376" data-name="패스 376" class="prefix__cls-5" d="M590.3 150.2a4.156 4.156 0 01-1.44-2.719 4.561 4.561 0 011.611-4.317 4.518 4.518 0 017.162 2.833 4.114 4.114 0 01-2.113 4.766s-3.037 1.192-5.22-.563z" transform="translate(2.101 .059)"/><path id="prefix__패스_377" data-name="패스 377" class="prefix__cls-6" d="M593.65 144.589a4.779 4.779 0 012.283-2.84" transform="translate(2.655)"/><path id="prefix__패스_378" data-name="패스 378" class="prefix__cls-2" d="M571.059 159.742s.9 9.158 2.982 13.508a4.088 4.088 0 003.4 2.3 136.668 136.668 0 0020.328.115 4.1 4.1 0 003.41-2.447c1-2.314 2.35-6.719 3.037-14.437z" transform="translate(.074 1.946)"/><path id="prefix__패스_379" data-name="패스 379" class="prefix__cls-2" d="M604.215 158.783a77.858 77.858 0 01-.646 5.318 38.414 38.414 0 01-2.388 9.114 4.092 4.092 0 01-3.415 2.446 135.876 135.876 0 01-20.327-.1 4.115 4.115 0 01-3.4-2.308 36.6 36.6 0 01-2.319-8.652c-.45-2.711-.657-4.857-.657-4.857z" transform="translate(.074 1.946)"/><path id="prefix__패스_380" data-name="패스 380" class="prefix__cls-2" d="M604.215 158.783a77.858 77.858 0 01-.646 5.318 49.556 49.556 0 01-1.061 5.111 27.2 27.2 0 01-1.327 4 4.092 4.092 0 01-3.415 2.446 135.876 135.876 0 01-20.327-.1 4.115 4.115 0 01-3.4-2.308 22.192 22.192 0 01-1.327-3.864 62.992 62.992 0 01-.992-4.788c-.45-2.711-.657-4.857-.657-4.857z" transform="translate(.074 1.946)"/><path id="prefix__패스_381" data-name="패스 381" class="prefix__cls-3" d="M604.215 158.783a77.858 77.858 0 01-.646 5.318 198.749 198.749 0 01-31.853.5c-.45-2.711-.657-4.857-.657-4.857z" transform="translate(.074 1.946)"/><path id="prefix__패스_382" data-name="패스 382" class="prefix__cls-4" d="M592.053 145.824c-5.5 2.113-11.74 6.777-15.026 9.42-1.339 1.077-2.725 2.08-4.1 3.1a9.86 9.86 0 00-2.018 1.908 2.988 2.988 0 00-.2.294 1.985 1.985 0 002.19 2.973 6.859 6.859 0 001.667-.674 5.888 5.888 0 012.854-.712 5.375 5.375 0 013.368.974 4.116 4.116 0 004.831-.046 5.367 5.367 0 014.912-.277 5.275 5.275 0 003.254.406 7.759 7.759 0 002.247-.9 8.406 8.406 0 014.075-1.321 9.374 9.374 0 013.277.5s2.384.546 1.982-1.8c0 0-2.606-8.278-7.695-13.914a3.15 3.15 0 00-3.509-.781z" transform="translate(0 .343)"/><path id="prefix__패스_383" data-name="패스 383" class="prefix__cls-5" d="M590.3 150.2a4.156 4.156 0 01-1.44-2.719 4.561 4.561 0 011.611-4.317 4.518 4.518 0 017.162 2.833 4.114 4.114 0 01-2.113 4.766s-3.037 1.192-5.22-.563z" transform="translate(2.101 .059)"/><path id="prefix__패스_384" data-name="패스 384" class="prefix__cls-3" d="M602.339 168.143a27.2 27.2 0 01-1.327 4 4.092 4.092 0 01-3.415 2.446 135.876 135.876 0 01-20.327-.1 4.115 4.115 0 01-3.4-2.308 22.192 22.192 0 01-1.327-3.864 115.358 115.358 0 0029.796-.174z" transform="translate(.243 3.015)"/><path id="prefix__패스_385" data-name="패스 385" class="prefix__cls-6" d="M593.65 144.589a4.779 4.779 0 012.283-2.84" transform="translate(2.655)"/><path id="prefix__패스_386" data-name="패스 386" class="prefix__cls-2" d="M571.059 159.742s.9 9.158 2.982 13.508a4.088 4.088 0 003.4 2.3 136.668 136.668 0 0020.328.115 4.1 4.1 0 003.41-2.447c1-2.314 2.35-6.719 3.037-14.437z" transform="translate(.074 1.946)"/><path id="prefix__패스_387" data-name="패스 387" class="prefix__cls-2" d="M604.215 158.783a77.858 77.858 0 01-.646 5.318 38.414 38.414 0 01-2.388 9.114 4.092 4.092 0 01-3.415 2.446 135.876 135.876 0 01-20.327-.1 4.115 4.115 0 01-3.4-2.308 36.6 36.6 0 01-2.319-8.652c-.45-2.711-.657-4.857-.657-4.857z" transform="translate(.074 1.946)"/><path id="prefix__패스_388" data-name="패스 388" class="prefix__cls-2" d="M604.215 158.783a77.858 77.858 0 01-.646 5.318 49.556 49.556 0 01-1.061 5.111 27.2 27.2 0 01-1.327 4 4.092 4.092 0 01-3.415 2.446 135.876 135.876 0 01-20.327-.1 4.115 4.115 0 01-3.4-2.308 22.192 22.192 0 01-1.327-3.864 62.992 62.992 0 01-.992-4.788c-.45-2.711-.657-4.857-.657-4.857z" transform="translate(.074 1.946)"/><path id="prefix__패스_389" data-name="패스 389" class="prefix__cls-3" d="M604.215 158.783a77.858 77.858 0 01-.646 5.318 198.749 198.749 0 01-31.853.5c-.45-2.711-.657-4.857-.657-4.857z" transform="translate(.074 1.946)"/><path id="prefix__패스_390" data-name="패스 390" class="prefix__cls-3" d="M602.339 168.143a27.2 27.2 0 01-1.327 4 4.092 4.092 0 01-3.415 2.446 135.876 135.876 0 01-20.327-.1 4.115 4.115 0 01-3.4-2.308 22.192 22.192 0 01-1.327-3.864 115.358 115.358 0 0029.796-.174z" transform="translate(.243 3.015)"/><path id="prefix__패스_391" data-name="패스 391" class="prefix__cls-7" d="M589.307 159.174l-1.863 5.8-1.7 5.3-1.835 5.685c.628.02 1.275.029 1.94.039 2.662.038 5.533 0 8.32-.172.712-.048 1.425-.095 2.129-.162a4.116 4.116 0 003.423-2.443 27.939 27.939 0 001.322-4 50.543 50.543 0 001.057-5.121c.237-1.569.466-3.337.646-5.315z" transform="translate(1.542 1.946)"/><path id="prefix__패스_392" data-name="패스 392" class="prefix__cls-8" d="M592.053 145.824c-5.5 2.113-11.74 6.777-15.026 9.42-1.339 1.077-2.725 2.08-4.1 3.1a9.86 9.86 0 00-2.018 1.908 2.988 2.988 0 00-.2.294 1.985 1.985 0 002.19 2.973 6.859 6.859 0 001.667-.674 5.888 5.888 0 012.854-.712 5.375 5.375 0 013.368.974 4.116 4.116 0 004.831-.046 5.367 5.367 0 014.912-.277 5.275 5.275 0 003.254.406 7.759 7.759 0 002.247-.9 8.406 8.406 0 014.075-1.321 9.374 9.374 0 013.277.5s2.384.546 1.982-1.8c0 0-2.606-8.278-7.695-13.914a3.15 3.15 0 00-3.509-.781z" transform="translate(0 .343)"/><path id="prefix__패스_393" data-name="패스 393" class="prefix__cls-5" d="M590.3 150.2a4.156 4.156 0 01-1.44-2.719 4.561 4.561 0 011.611-4.317 4.518 4.518 0 017.162 2.833 4.114 4.114 0 01-2.113 4.766s-3.037 1.192-5.22-.563z" transform="translate(2.101 .059)"/><path id="prefix__패스_394" data-name="패스 394" class="prefix__cls-6" d="M593.65 144.589a4.779 4.779 0 012.283-2.84" transform="translate(2.655)"/><path id="prefix__패스_395" data-name="패스 395" class="prefix__cls-2" d="M571.059 159.742s.9 9.158 2.982 13.508a4.088 4.088 0 003.4 2.3 136.668 136.668 0 0020.328.115 4.1 4.1 0 003.41-2.447c1-2.314 2.35-6.719 3.037-14.437z" transform="translate(.074 1.946)"/><path id="prefix__패스_396" data-name="패스 396" class="prefix__cls-2" d="M604.215 158.783a77.858 77.858 0 01-.646 5.318 38.414 38.414 0 01-2.388 9.114 4.092 4.092 0 01-3.415 2.446 135.876 135.876 0 01-20.327-.1 4.115 4.115 0 01-3.4-2.308 36.6 36.6 0 01-2.319-8.652c-.45-2.711-.657-4.857-.657-4.857z" transform="translate(.074 1.946)"/><path id="prefix__패스_397" data-name="패스 397" class="prefix__cls-2" d="M604.215 158.783a77.858 77.858 0 01-.646 5.318 49.556 49.556 0 01-1.061 5.111 27.2 27.2 0 01-1.327 4 4.092 4.092 0 01-3.415 2.446 135.876 135.876 0 01-20.327-.1 4.115 4.115 0 01-3.4-2.308 22.192 22.192 0 01-1.327-3.864 62.992 62.992 0 01-.992-4.788c-.45-2.711-.657-4.857-.657-4.857z" transform="translate(.074 1.946)"/><path id="prefix__패스_398" data-name="패스 398" class="prefix__cls-3" d="M604.215 158.783a77.858 77.858 0 01-.646 5.318 198.749 198.749 0 01-31.853.5c-.45-2.711-.657-4.857-.657-4.857z" transform="translate(.074 1.946)"/><path id="prefix__패스_399" data-name="패스 399" class="prefix__cls-4" d="M592.053 145.824c-5.5 2.113-11.74 6.777-15.026 9.42-1.339 1.077-2.725 2.08-4.1 3.1a9.86 9.86 0 00-2.018 1.908 2.988 2.988 0 00-.2.294 1.985 1.985 0 002.19 2.973 6.859 6.859 0 001.667-.674 5.888 5.888 0 012.854-.712 5.375 5.375 0 013.368.974 4.116 4.116 0 004.831-.046 5.367 5.367 0 014.912-.277 5.275 5.275 0 003.254.406 7.759 7.759 0 002.247-.9 8.406 8.406 0 014.075-1.321 9.374 9.374 0 013.277.5s2.384.546 1.982-1.8c0 0-2.606-8.278-7.695-13.914a3.15 3.15 0 00-3.509-.781z" transform="translate(0 .343)"/><path id="prefix__패스_400" data-name="패스 400" class="prefix__cls-5" d="M590.3 150.2a4.156 4.156 0 01-1.44-2.719 4.561 4.561 0 011.611-4.317 4.518 4.518 0 017.162 2.833 4.114 4.114 0 01-2.113 4.766s-3.037 1.192-5.22-.563z" transform="translate(2.101 .059)"/><path id="prefix__패스_401" data-name="패스 401" class="prefix__cls-3" d="M602.339 168.143a27.2 27.2 0 01-1.327 4 4.092 4.092 0 01-3.415 2.446 135.876 135.876 0 01-20.327-.1 4.115 4.115 0 01-3.4-2.308 22.192 22.192 0 01-1.327-3.864 115.358 115.358 0 0029.796-.174z" transform="translate(.243 3.015)"/><path id="prefix__패스_402" data-name="패스 402" class="prefix__cls-6" d="M593.65 144.589a4.779 4.779 0 012.283-2.84" transform="translate(2.655)"/><path id="prefix__패스_403" data-name="패스 403" class="prefix__cls-2" d="M571.059 159.742s.9 9.158 2.982 13.508a4.088 4.088 0 003.4 2.3 136.668 136.668 0 0020.328.115 4.1 4.1 0 003.41-2.447c1-2.314 2.35-6.719 3.037-14.437z" transform="translate(.074 1.946)"/><path id="prefix__패스_404" data-name="패스 404" class="prefix__cls-2" d="M604.215 158.783a77.858 77.858 0 01-.646 5.318 38.414 38.414 0 01-2.388 9.114 4.092 4.092 0 01-3.415 2.446 135.876 135.876 0 01-20.327-.1 4.115 4.115 0 01-3.4-2.308 36.6 36.6 0 01-2.319-8.652c-.45-2.711-.657-4.857-.657-4.857z" transform="translate(.074 1.946)"/><path id="prefix__패스_405" data-name="패스 405" d="M604.215 158.783a77.858 77.858 0 01-.646 5.318 49.556 49.556 0 01-1.061 5.111 27.2 27.2 0 01-1.327 4 4.092 4.092 0 01-3.415 2.446 135.876 135.876 0 01-20.327-.1 4.115 4.115 0 01-3.4-2.308 22.192 22.192 0 01-1.327-3.864 62.992 62.992 0 01-.992-4.788c-.45-2.711-.657-4.857-.657-4.857z" transform="translate(.074 1.946)" fill="#ffecc6"/><path id="prefix__패스_406" data-name="패스 406" class="prefix__cls-10" d="M604.215 158.783a77.858 77.858 0 01-.646 5.318 198.749 198.749 0 01-31.853.5c-.45-2.711-.657-4.857-.657-4.857z" transform="translate(.074 1.946)"/><path id="prefix__패스_407" data-name="패스 407" class="prefix__cls-10" d="M602.339 168.143a27.2 27.2 0 01-1.327 4 4.092 4.092 0 01-3.415 2.446 135.876 135.876 0 01-20.327-.1 4.115 4.115 0 01-3.4-2.308 22.192 22.192 0 01-1.327-3.864 115.358 115.358 0 0029.796-.174z" transform="translate(.243 3.015)"/><path id="prefix__패스_408" data-name="패스 408" class="prefix__cls-7" d="M589.307 159.174l-1.863 5.8-1.7 5.3-1.835 5.685c.628.02 1.275.029 1.94.039 2.662.038 5.533 0 8.32-.172.712-.048 1.425-.095 2.129-.162a4.116 4.116 0 003.423-2.443 27.939 27.939 0 001.322-4 50.543 50.543 0 001.057-5.121c.237-1.569.466-3.337.646-5.315z" transform="translate(1.542 1.946)"/><path id="prefix__패스_409" data-name="패스 409" d="M592.053 145.824c-5.5 2.113-11.74 6.777-15.026 9.42-1.339 1.077-2.725 2.08-4.1 3.1a9.86 9.86 0 00-2.018 1.908 2.988 2.988 0 00-.2.294 1.985 1.985 0 002.19 2.973 6.859 6.859 0 001.667-.674 5.888 5.888 0 012.854-.712 5.375 5.375 0 013.368.974 4.116 4.116 0 004.831-.046 5.367 5.367 0 014.912-.277 5.275 5.275 0 003.254.406 7.759 7.759 0 002.247-.9 8.406 8.406 0 014.075-1.321 9.374 9.374 0 013.277.5s2.384.546 1.982-1.8c0 0-2.606-8.278-7.695-13.914a3.15 3.15 0 00-3.509-.781z" transform="translate(0 .343)" fill="#77543f"/><path id="prefix__패스_410" data-name="패스 410" d="M590.3 150.2a4.156 4.156 0 01-1.44-2.719 4.561 4.561 0 011.611-4.317 4.518 4.518 0 017.162 2.833 4.114 4.114 0 01-2.113 4.766s-3.037 1.192-5.22-.563z" transform="translate(2.101 .059)" fill="#ff7133"/><g id="prefix__패스_411" data-name="패스 411" stroke-linejoin="round" fill="none"><path class="prefix__cls-14" d="M603.875 164.379c.109-.812.213-1.669.305-2.577.652-.064 1.426-.423 1.183-1.843a46.44 46.44 0 00-5.736-11.459 4.95 4.95 0 00.1-2.5 4.518 4.518 0 00-7.162-2.833 4.376 4.376 0 00-1.656 3.416c-5.2 2.273-10.826 6.487-13.888 8.949-1.339 1.077-2.725 2.08-4.1 3.1a9.86 9.86 0 00-2.018 1.908 2.988 2.988 0 00-.2.294 1.976 1.976 0 00.653 2.73c.1.811.246 1.813.43 2.921a61.854 61.854 0 00.988 4.788c.076.284.155.562.234.838l.021.077a19.084 19.084 0 001.072 2.949 4.115 4.115 0 003.4 2.308c2.276.172 6.861.456 11.9.449h.011q1 0 2.011-.019a89.48 89.48 0 006.4-.32 4.129 4.129 0 002.838-1.5c.07-.087.13-.182.193-.273a4.128 4.128 0 00.389-.676c.14-.329.287-.715.439-1.129.061-.168.123-.337.186-.519l.006-.019.037-.109.017-.053c.027-.078.052-.158.079-.238l.032-.1a49.894 49.894 0 00.245-.802q.157-.531.313-1.131l.078-.3c.052-.208.1-.425.157-.645.037-.154.072-.312.108-.471.059-.264.118-.53.176-.81l.015-.068.019-.1c.048-.236.1-.474.144-.721.027-.139.053-.274.079-.417.019-.1.038-.217.057-.323l.084-.489c.039-.227.079-.443.117-.679.038-.254.076-.523.114-.787l.07-.484c.031-.112.044-.222.06-.333z" transform="translate(0 .059)"/><path d="M589.24 177.893h.174l.011-.001c.664 0 1.335-.007 2.011-.019a89.447 89.447 0 006.404-.32 4.129 4.129 0 002.838-1.5c.07-.088.13-.182.193-.274a4.09 4.09 0 00.388-.676 24.8 24.8 0 00.44-1.129c.06-.168.122-.336.186-.519l.005-.019.037-.109.017-.054.079-.238c.01-.032.02-.065.032-.098a35.558 35.558 0 00.558-1.933c.026-.1.053-.196.078-.299a50.681 50.681 0 00.441-1.926l.015-.068.019-.097c.048-.236.096-.474.144-.721.026-.14.053-.274.079-.417l.057-.323.083-.49c.04-.226.08-.443.117-.678.038-.254.076-.522.114-.786l.07-.484c.016-.11.029-.225.045-.336.109-.813.212-1.67.305-2.578.652-.063 1.426-.423 1.183-1.843 0 0-1.942-6.15-5.736-11.458.292-.873.249-1.773.105-2.505-.212-1.073-.78-2.07-1.634-2.752-.914-.733-1.85-.974-2.685-.974-1.608 0-2.843.892-2.843.892-1.264 1.028-1.63 2.315-1.656 3.417-5.205 2.273-10.826 6.487-13.888 8.95-1.34 1.077-2.725 2.08-4.105 3.103-1 .742-1.625 1.389-2.018 1.908a2.988 2.988 0 00-.196.294c-.615 1.052-.208 2.202.653 2.73.105.811.247 1.813.43 2.921.188 1.114.417 2.32.688 3.514.097.427.198.854.304 1.274.076.284.155.562.234.838l.021.077c.315 1.093.665 2.108 1.072 2.95.635 1.326 1.939 2.191 3.404 2.307 2.25.17 6.756.45 11.726.45m0 1c-5.051 0-9.562-.284-11.801-.453-1.832-.145-3.452-1.245-4.231-2.873-.392-.81-.762-1.827-1.13-3.104l-.004-.011-.02-.072a47.587 47.587 0 01-.237-.851l-.004-.013a56.15 56.15 0 01-.31-1.298 64.937 64.937 0 01-.698-3.569 83.604 83.604 0 01-.38-2.54 2.968 2.968 0 01-.909-1.452 3.014 3.014 0 01.329-2.33c.076-.13.164-.263.26-.39.526-.696 1.273-1.405 2.221-2.11l.802-.593c1.085-.801 2.208-1.63 3.272-2.487 2.87-2.307 8.362-6.45 13.565-8.84.183-1.407.858-2.615 1.975-3.522a.993.993 0 01.045-.035c.061-.045 1.52-1.082 3.429-1.082 1.208 0 2.322.402 3.31 1.193 1.02.816 1.726 2.002 1.99 3.34.175.89.176 1.732.003 2.508 3.66 5.276 5.521 11.096 5.6 11.347a.997.997 0 01.033.133c.15.88.017 1.602-.398 2.146a2.103 2.103 0 01-.85.655 82.546 82.546 0 01-.236 1.926l-.02.151-.025.187-.044.308-.027.179-.028.196c-.028.201-.057.402-.086.595l-.002.011a29.909 29.909 0 01-.118.689l-.084.49-.001.007-.024.138-.034.188c-.019.108-.04.215-.06.323l-.02.102-.145.728-.019.093a1.58 1.58 0 01-.003.018l-.014.065a53.88 53.88 0 01-.5 2.158l-.03.111a36.404 36.404 0 01-.577 1.998l-.01.032-.017.049a1.008 1.008 0 01-.006.018l-.028.086-.049.147-.013.041a16.523 16.523 0 01-.052.158c-.066.19-.13.365-.19.534a24.415 24.415 0 01-.465 1.19c-.121.274-.273.54-.48.839l-.035.053c-.054.08-.121.18-.203.282a5.156 5.156 0 01-3.526 1.868c-1.94.174-4.118.283-6.476.324a113.024 113.024 0 01-2.039.02h-.176z" transform="translate(0 .059)" fill="#d9ba89"/></g><path id="prefix__패스_412" data-name="패스 412" class="prefix__cls-6" d="M593.65 144.589a4.779 4.779 0 012.283-2.84" transform="translate(2.655)"/></g></g></svg>