<svg xmlns="http://www.w3.org/2000/svg" width="62" height="62"><defs><style>.prefix__cls-2{fill:#ff7957;stroke:#ff6359;stroke-miterlimit:10}</style></defs><g id="prefix__그룹_780" data-name="그룹 780" transform="translate(-15 -264)"><g id="prefix__패스_276" data-name="패스 276" fill="#ffece5"><path d="M20 0h22a20 20 0 0120 20v22a20 20 0 01-20 20H20A20 20 0 010 42V20A20 20 0 0120 0z" transform="translate(15 264)"/><path d="M20 1.3A18.58 18.58 0 006.777 6.777 18.578 18.578 0 001.3 20v22a18.58 18.58 0 005.477 13.223A18.578 18.578 0 0020 60.7h22a18.58 18.58 0 0013.223-5.477A18.578 18.578 0 0060.7 42V20a18.58 18.58 0 00-5.477-13.223A18.578 18.578 0 0042 1.3H20M20 0h22c11.046 0 20 8.954 20 20v22c0 11.046-8.954 20-20 20H20C8.954 62 0 53.046 0 42V20C0 8.954 8.954 0 20 0z" transform="translate(15 264)" fill="rgba(255,159,116,.12)"/></g><g id="prefix__그룹_647" data-name="그룹 647" transform="translate(-363.079 225.733)"><g id="prefix__그룹_646" data-name="그룹 646"><path id="prefix__패스_249" data-name="패스 249" class="prefix__cls-2" d="M405.946 72.7a56.227 56.227 0 00-5.746-14.03 2.005 2.005 0 00-2.249-.936l-.029.009a1.906 1.906 0 00-1.1.9c-2.328 4.162-3.833 12.566-4.369 15.963a.91.91 0 001.212.994 23.298 23.298 0 002.021-.818.9.9 0 00.491-.665l.563-3.359a1 1 0 01.586-.754c.558-.246 1.487-.639 2.25-.89a1 1 0 011.249.594 102.898 102.898 0 011.549 4.3.974.974 0 001.323.59l1.5-.664a1.064 1.064 0 00.749-1.234zm-6.153-6.546l-1.764.526a.392.392 0 01-.5-.452c.187-.965.451-1.956.649-2.642a.389.389 0 01.717-.075l1.128 2.087a.388.388 0 01-.23.554z"/></g><path id="prefix__패스_250" data-name="패스 250" class="prefix__cls-2" d="M405.658 58.74a19.142 19.142 0 012.472-.717.554.554 0 01.657.42c.38 1.73 1.319 7.8 1.955 10.553a.177.177 0 00.268.124l1.973-1.2a.388.388 0 01.559.171 10.6 10.6 0 01.716 2.095.373.373 0 01-.159.385A16.307 16.307 0 01408.74 73a.166.166 0 01-.191-.115 127.294 127.294 0 01-3.258-13.529.559.559 0 01.367-.616z"/><path id="prefix__패스_251" data-name="패스 251" class="prefix__cls-2" d="M413.563 55.995a19.3 19.3 0 012.472-.717.555.555 0 01.658.421c.379 1.729 1.319 7.8 1.954 10.552a.177.177 0 00.268.124l1.973-1.2a.389.389 0 01.559.172 10.574 10.574 0 01.716 2.1.372.372 0 01-.159.384 16.286 16.286 0 01-5.359 2.43.166.166 0 01-.191-.115 127.289 127.289 0 01-3.254-13.533.559.559 0 01.363-.618z"/><path id="prefix__패스_252" data-name="패스 252" class="prefix__cls-2" d="M392.561 80.679c4.353-1.2 26.82-7.367 33.166-8.981a.654.654 0 01.8.487c.106.44.249 1.077.391 1.824a.661.661 0 01-.464.765c-4.073 1.155-28.583 8.089-32.772 9.02a.656.656 0 01-.743-.384l-.8-1.826a.658.658 0 01.422-.905z"/><path id="prefix__패스_253" data-name="패스 253" class="prefix__cls-2" d="M397.378 84.784c3.7-1.192 22.782-7.339 28.177-8.964a.563.563 0 01.707.389c.108.374.255.916.4 1.553a.57.57 0 01-.371.676c-3.458 1.145-24.27 8.025-27.837 8.982a.561.561 0 01-.652-.3l-.76-1.54a.567.567 0 01.336-.796z"/></g></g></svg>