<svg xmlns="http://www.w3.org/2000/svg" width="62" height="62"><g data-name="그룹 783"><g data-name="그룹 630"><g data-name="사각형 460" stroke="#f0f0f0" stroke-width="1.3" fill="#fff"><rect width="62" height="62" rx="16" stroke="none"/><rect x=".65" y=".65" width="60.7" height="60.7" rx="15.35" fill="none"/></g></g><g data-name="그룹 640"><path data-name="패스 239" d="M48.153 39.23a13.429 13.429 0 01-4.98 6.7c-4.425 3.038-9.867 2.827-14.028 1.928a31.291 31.291 0 01-5.4-1.664 14.436 14.436 0 01-2.1-1.1c-8.057-5.138-8.612-12.258-8.071-16.511a13.356 13.356 0 012.3-5.918c6.829-9.748 16.445-8.322 20.685-7.08a17.781 17.781 0 012.14.766c13.179 6.591 11.264 17.687 9.454 22.879z" fill="#0095ff" stroke="#55b4f7" stroke-miterlimit="10"/><g data-name="그룹 638"><path data-name="패스 240" d="M48.153 39.229a13.429 13.429 0 01-4.98 6.7c-4.425 3.038-9.867 2.827-14.028 1.928l1.413-6.182.621-2.695.74-3.183 1.175-5.125.779-3.381 1.136-4.953 1.545-6.75a17.783 17.783 0 012.14.766c13.184 6.591 11.269 17.684 9.459 22.875z" fill="#000f62" opacity=".056"/></g><g data-name="그룹 639"><path data-name="패스 241" d="M38.114 24.223a6.242 6.242 0 00-3.1-1.889c-2.074-.581-5.072-.476-9.418 1.2a.941.941 0 00-.581.977c.172 1.453 1.03 8.863 1.995 16.709a.871.871 0 00.344.621.929.929 0 00.568.2c.04 0 .079-.013.132-.013l2.51-.357h.04a.931.931 0 00.793-1.03l-.211-1.664-.383-3.051c.3-.026.687-.066 1.123-.132a12.512 12.512 0 004.993-1.849 6.6 6.6 0 001.2-9.722zm-3.646 4.993c-.026.106-.066.2-.092.291a1.939 1.939 0 01-1.281 1.162l-.2.04a4.142 4.142 0 01-1.849-.225.375.375 0 01-.238-.3l-.436-2.866a.375.375 0 01.238-.409 4.415 4.415 0 012.444-.053 1.96 1.96 0 01.819.436 1.852 1.852 0 01.595 1.924z" fill="#fff"/></g></g></g></svg>