<svg width="101.406" height="88.08">
  <g transform="translate(-129 -114.598)">
    <g transform="translate(-139.514 74.69)">
      <path
        d="M342.131 55.811a.617.617 0 01-.463-.68q.053-.417.081-.842t.028-.856A13.526 13.526 0 00315.74 48.3a.16.16 0 01-.256.059 10.748 10.748 0 00-17.884 8.035q0 .31.018.616t.053.607a.541.541 0 01-.119.405.573.573 0 01-.374.2 14.482 14.482 0 107.4 27.729.472.472 0 01.6.207 14.561 14.561 0 005.215 5.4 14.487 14.487 0 0014.943-.028 14.559 14.559 0 005.222-5.465.3.3 0 01.4-.126 16.162 16.162 0 1011.173-30.132z"
        fill="#ff9f74" />
    </g>
    <g transform="translate(-226.966 -137.11)">
      <path fill="#5d5d5d"
        d="M366.665 332.979c0-1.1-.591-1.745-2.532-2.307l-2.674-.788c-2.672-.76-4.952-2.532-4.952-6.077s2.9-6.641 8.076-6.641a10.212 10.212 0 016.246 1.772c2.364 1.858.057 5.628-2.532 3.912a6.741 6.741 0 00-3.573-1.182c-1.632 0-2.814.788-2.814 1.829 0 .844.253 1.491 1.913 2l2.617.76c3.236.9 5.712 2.673 5.712 6.189 0 4.109-3.124 7.344-8.357 7.344a10.078 10.078 0 01-6.95-2.307 2.461 2.461 0 013.1-3.827 6.525 6.525 0 003.827 1.323c2.218-.002 2.893-1.015 2.893-2z" />
      <path fill="#5d5d5d"
        d="M374.436 328.252c0-8.019 4.923-11.142 9.96-11.142 4.952 0 9.989 2.729 9.989 11.142 0 7.963-5.093 11.34-9.989 11.34-4.924 0-9.96-3.123-9.96-11.34zm14.406 0c0-5.036-2.223-6.415-4.446-6.415-2.335 0-4.417 1.407-4.417 6.415 0 5.206 2.11 6.641 4.361 6.641 2.194 0 4.502-1.493 4.502-6.641z" />
      <path fill="#5d5d5d"
        d="M397.261 320.993c0-2.729 1.153-3.574 3.91-3.574h4.729c4.531 0 6.922 2.055 6.922 5.487 0 1.8-.675 3.94-2.954 4.671a5.107 5.107 0 014.132 5.262c0 3.714-2.392 6.387-7.063 6.387h-5.993c-2.785 0-3.685-.872-3.685-3.743zm5.205 4.952h2.982a2.036 2.036 0 002.28-2.054c0-1.378-.732-2.082-2.308-2.082h-1.941c-.873 0-1.013.337-1.013.985zm3.376 8.835c1.632 0 2.645-.731 2.645-2.307a2.267 2.267 0 00-2.56-2.449h-3.461v3.687c0 .957.169 1.069 1.069 1.069z" />
      <path fill="#5d5d5d"
        d="M416.4 328.252c0-8.019 4.924-11.142 9.96-11.142 4.953 0 9.989 2.729 9.989 11.142 0 7.963-5.093 11.34-9.989 11.34-4.924 0-9.96-3.123-9.96-11.34zm14.406 0c0-5.036-2.223-6.415-4.446-6.415-2.336 0-4.417 1.407-4.417 6.415 0 5.206 2.11 6.641 4.361 6.641 2.196 0 4.496-1.493 4.496-6.641z" />
      <path fill="#5d5d5d"
        d="M456.668 335.314a2.667 2.667 0 01.7 1.717 2.839 2.839 0 01-2.813 2.7 2.667 2.667 0 01-1.942-.985l-6.416-7.54-1.687 1.66v4.643a2.376 2.376 0 01-2.61 2.191c-1.322 0-2.672-.731-2.672-2.194v-18.173c0-1.464 1.322-2.167 2.644-2.167 1.294 0 2.646.7 2.646 2.167v6.556l7.315-7.766a2.629 2.629 0 011.913-.929 2.731 2.731 0 012.73 2.618 2.114 2.114 0 01-.563 1.434l-6.275 6.556z" />
    </g>
  </g>
</svg>